<svg xmlns="http://www.w3.org/2000/svg" width="88.077" height="34.753" viewBox="0 0 88.077 34.753">
  <g id="Logo" transform="translate(-128.923 -762.582)">
    <path id="egg" d="M22.741,8.293C19.992,2.945,16.607,0,13.211,0s-6.78,2.945-9.53,8.293C1.479,12.575,0,17.9,0,21.541a13.211,13.211,0,0,0,26.423,0C26.422,17.9,24.943,12.575,22.741,8.293Zm-9.53,24.394A11.158,11.158,0,0,1,2.066,21.541c0-3.343,1.387-8.288,3.453-12.3,2.343-4.557,5.147-7.171,7.692-7.171S18.56,4.68,20.9,9.238c2.065,4.017,3.452,8.961,3.452,12.3A11.157,11.157,0,0,1,13.211,32.686Zm0,0" transform="translate(128.923 762.582)"/>
    <text id="Yolko" transform="translate(160 788)" font-size="22" font-family="SuperclarendonRg-Bold, Superclarendon" font-weight="700" letter-spacing="-0.15em"><tspan x="0" y="0">Yolko</tspan></text>
  </g>
</svg>
