<?xml version="1.0" encoding="utf-8"?>
<!-- Generator: Adobe Illustrator 25.1.0, SVG Export Plug-In . SVG Version: 6.00 Build 0)  -->
<svg version="1.1" id="Layer_1" xmlns="http://www.w3.org/2000/svg" xmlns:xlink="http://www.w3.org/1999/xlink" x="0px" y="0px"
	 viewBox="0 0 110 79.9" style="enable-background:new 0 0 110 79.9;" xml:space="preserve">
<g>
	<path d="M3180.3-15c19.3,0,37.8,2.8,52.1,8l0.5,0.2l0.4,0.1l0,0l0.1,0c17.3,4,33.3,19.7,41.2,28.7l0.1,0.1l0.1,0.1
		c2.7,3,5.4,6.2,7.8,9.7l0.4,0.5c13.2,18.9,20.7,43.4,21.1,68.8c0.4,27.5-7.3,53.7-21.7,73.6c-14,19.3-32.8,30.8-53.1,32.5l-0.1,0
		l-0.1,0c-1.4,0.1-2.9,0.2-4.5,0.2c-0.7,0-1.4,0-2.1,0l-0.4-0.1l-1.2,0.1c-3.4-0.2-6.8-0.3-10.1-0.3c-56.1,0-92.4,23.2-105.3,33.2
		l0,0l-0.4,0.3c-0.9,0.7-1.6,1.3-2.2,1.8l-0.1,0.1l-0.1,0.1c-0.5,0.4-1,0.9-1.5,1.3l-0.1,0.1c-7.6,6.3-16,9.9-23,9.9
		c-3.4,0-6.4-0.8-8.8-2.5c-8.9-6-9.8-22.8-2.3-39.2l0.5-1.1l0-0.1l0.1-0.2c6.4-13.4,7.8-34.1-9.2-48.1l-0.3-0.3l-0.4-0.3
		c-0.5-0.3-1-0.7-1.4-1.1l-0.3-0.3l-0.4-0.3c-0.5-0.4-0.8-0.6-0.9-0.7l-0.3-0.6l-0.5-0.7c-2.7-3.8-3.5-8.6-2.2-13.1l34.5-113.1
		c0.3-0.9,0.6-1.8,1.1-2.6l0.2-0.4l0.2-0.5l1.6-4.1l0.3-0.7l0.2-0.8c0.3-1.8,1.1-3.7,2.2-5.7c4.4-7.8,13.7-15.5,24.8-20.7
		c2.9-1.3,5.8-2.5,8.7-3.4l0.2,0l0.1-0.1c14.4-5.1,32.6-8,51.3-8.3C3178.1-15,3179.2-15,3180.3-15 M3180.3-24c-1.1,0-2.3,0-3.4,0
		c-20.5,0.3-39.3,3.6-54.2,8.8c-3.2,1-6.5,2.3-9.8,3.8c-13.4,6.2-23.7,15.3-28.9,24.4c-1.6,2.8-2.7,5.6-3.2,8.4
		c-0.5,1.4-1.1,2.8-1.6,4.1c-0.7,1.3-1.3,2.7-1.7,4.2L3043,142.8c-2.3,7.4-0.7,15.1,3.5,21c0.7,1.4,1.9,2.8,3.8,4.2
		c0.7,0.6,1.5,1.2,2.3,1.7c17,14,8.1,34.5,6.8,37.3c-0.1,0.1-0.1,0.2-0.1,0.3c0,0,0,0,0,0c-10,20.8-8.5,42.6,4.9,51.6
		c4.1,2.7,8.8,4,13.9,4c9.2,0,19.5-4.3,28.8-11.9l0,0c0,0,0,0,0.1-0.1c0.6-0.5,1.2-1.1,1.9-1.6c8.4-6.9,44.1-33.2,102.2-33.2
		c3.3,0,6.6,0.1,10,0.3c0,0,0,0,0.1,0c0,0,0,0,0,0c0,0,0,0,0,0c1.3,0.1,2.5,0.1,3.7,0.1c1.9,0,3.7-0.1,5.4-0.2
		c47.2-3.8,84.1-54.2,83.1-115.2c-0.5-28.3-9-54.1-22.8-73.8v0c0,0-0.1-0.1-0.1-0.2c-2.7-3.9-5.6-7.5-8.8-10.9
		c-9.8-11.1-26.7-27.1-45.9-31.6c0,0,0,0,0,0C3220.7-20.8,3201.4-24,3180.3-24L3180.3-24z"/>
</g>
<path d="M3267.7,122.9c12.2-23.4,3.2-52.3-20.2-64.6c-23.4-12.2-52.3-3.2-64.6,20.2c-12.2,23.4-3.2,52.3,20.2,64.6
	C3226.6,155.4,3255.5,146.3,3267.7,122.9z M3262,100.2c-0.7,1.3-2.3,1.8-3.5,1.1c-1.3-0.7-1.8-2.3-1.1-3.5c0.7-1.3,2.3-1.8,3.5-1.1
	C3262.2,97.3,3262.7,98.9,3262,100.2z M3260.8,110.5c-0.7,2.6-1.7,5-2.9,7.4c-7.7,14.7-24.4,22.5-40.6,18.9c-1.4-0.3-2.2-1.7-1.9-3
	c0.3-1.4,1.7-2.2,3-1.9c14,3.1,28.3-3.7,35-16.3c1.1-2,1.9-4.1,2.5-6.4c0.4-1.4,1.8-2.2,3.1-1.8c0.2,0.1,0.3,0.1,0.5,0.2
	C3260.5,108.1,3261.1,109.3,3260.8,110.5z"/>
<path d="M65.9,67.5c-0.6,0-1.2-0.5-1.2-1.2V44.3c0-0.6,0.5-1.2,1.2-1.2c0.6,0,1.2,0.5,1.2,1.2v22.1C67.1,67,66.6,67.5,65.9,67.5z"/>
<path d="M65.8,38.9c-0.6,0-1.1-0.4-1.2-1l0,0c0-0.1-0.6-5.9-4.3-9.8c-0.4-0.5-0.4-1.2,0.1-1.6c0.5-0.4,1.2-0.4,1.6,0.1
	c4.2,4.4,4.8,10.9,4.9,11.1c0.1,0.6-0.4,1.2-1,1.3C65.9,38.9,65.9,38.9,65.8,38.9z"/>
<path d="M28.7,21.2c-0.4,0-0.7-0.2-1-0.5c-0.4-0.5-0.2-1.3,0.3-1.6c8.4-5.5,27.2-4.3,28-4.2c0.6,0,1.1,0.6,1.1,1.2
	c0,0.6-0.6,1.1-1.2,1.1c-0.2,0-18.9-1.3-26.6,3.8C29.2,21.2,28.9,21.2,28.7,21.2z"/>
<path d="M17.4,46.1c-0.6,0-1-0.4-1.1-1c-2.2-13,4.3-19.8,6.4-21.5c0.5-0.4,1.2-0.4,1.6,0.1s0.4,1.2-0.1,1.6
	c-1.8,1.6-7.7,7.6-5.6,19.4c0.1,0.6-0.3,1.2-0.9,1.3C17.5,46.1,17.4,46.1,17.4,46.1z"/>
<circle cx="26" cy="22.1" r="1.1"/>
<circle cx="65.8" cy="41.2" r="1.1"/>
<path d="M104.1,24.2c-0.1-0.8-0.3-1.5-0.4-2.1l0-0.1c-0.1-0.2-0.1-0.5-0.2-0.7c-0.7-3-1.7-7.1-7.6-10.4c-6.6-3.7-14-5.5-30.9-5.5
	l-0.6,0c-0.3,0-1.9-0.1-4.7-0.1c-7.3,0-22,0.7-38.4,5.8c-8.3,2.5-13.6,8.7-15.3,17.9C4.9,35.5,5.9,41.3,6,42
	c0.2,2.1,2.1,6.3,7.5,7.5c1.4,0.3,2.7,0.5,3.9,0.6c-0.3,0.2-0.9,0.5-1.8,0.6c-3,0.6-5.2,2.4-6,4.5C8.1,59.7,13.7,65.6,22,68.4
	c2.9,0.9,5.7,1.4,8.2,1.4v0c0,0,0,0,0,0c0.2,0,0.4,0,0.7,0c0.9,0,2.8,0.3,5.2,1.5c0.4,0.3,0.9,0.6,1.5,0.8l0,0l0,0
	c1.7,0.8,4.1,1.2,6.6,1.2c2.1,0,4.1-0.3,5.7-0.9c0.5-0.2,1-0.4,1.4-0.6c1.2-0.5,2.8-1,3.7-0.7c1.5,0.4,3.1,0.6,3.9,1.3
	c0.7,0.7,2.7,0.9,3.2-0.3l0.4,0.1c0.2,0,0.5-0.1,0.8-0.1c20.8-3.5,30.9-10.3,36.8-19.6C107.1,41.5,105.3,31.1,104.1,24.2z
	 M15.3,59.8c-0.6,0-1.1-0.5-1.1-1.1s0.5-1.1,1.1-1.1c0.6,0,1.1,0.5,1.1,1.1S15.9,59.8,15.3,59.8z M27.8,65.1c-0.1,0.6-0.6,1-1.1,1
	c-0.1,0-0.1,0-0.2,0c-0.2,0-5-0.8-9.6-4c-0.5-0.4-0.7-1.1-0.3-1.6c0.4-0.5,1.1-0.7,1.6-0.3c4.2,2.9,8.5,3.6,8.6,3.6
	C27.5,63.8,27.9,64.4,27.8,65.1z M98.2,51.2c-3.9,6.1-9.8,14.3-35.2,18.5c-0.1-3.3-0.2-12.3,0.3-24.1c0.4-9.2-1.7-12.8-3.5-16.1
	c-1.3-2.2-2.2-4-2.2-7.4c0-0.8,0.1-1.6,0.2-2.3c0,0-0.2-1.1-1.2-1.4c-1-0.2-4.1-0.4-6.2-0.4c-7.6,0-13.7,1.7-15.3,2.3
	c-0.5,0.2-1.1,0.3-1.7,0.5c-2.8,0.7-6.7,1.8-11,8.5c-4.3,6.8-2.4,15-1.5,18.1c-0.5,0.1-1.3,0.2-2.2,0.2c-1.4,0-3-0.2-4.7-0.6
	c-5.2-1.1-5.7-5.3-5.7-5.5l0-0.1c0-0.1-1.1-5.8,0.2-12.2c1.6-8.4,6.2-13.8,13.7-16.1c16.1-4.9,30.5-5.7,37.7-5.7
	c2.9,0,4.5,0.1,4.5,0.1l0,0l0.6,0c16.2,0,23.5,1.7,29.7,5.2c5,2.8,5.8,6,6.5,8.9c0.1,0.2,0.1,0.5,0.2,0.7c0.1,0.7,0.2,1.4,0.4,2.1
	C103,31.1,104.7,41,98.2,51.2z"/>
<circle cx="97.9" cy="28.6" r="0.1"/>
<circle cx="97.8" cy="24.7" r="0.1"/>
<path d="M92.9,27.5c-0.1,0-0.2,0-0.3,0c-0.2-0.1-0.5-0.2-0.6-0.5c-0.1-0.1,0-0.3,0.1-0.4c0.1-0.1,0.3,0,0.4,0.1
	c0.1,0.1,0.1,0.2,0.2,0.2c0.1,0,0.2,0,0.3,0c0.2-0.1,0.3-0.3,0.2-0.5c-0.1-0.1,0-0.3,0.1-0.4c0.1-0.1,0.3,0,0.4,0.1
	c0.3,0.5,0.1,1.1-0.4,1.3C93.2,27.5,93.1,27.5,92.9,27.5z"/>
<path d="M96.3,24.9c-0.2,0-0.4-0.1-0.6-0.2c-0.2-0.2-0.4-0.4-0.4-0.7c-0.1-0.3,0-0.6,0.2-0.8c0.2-0.2,0.4-0.4,0.7-0.4
	c0.2,0,0.3,0.1,0.3,0.2c0,0.2-0.1,0.3-0.2,0.3c-0.1,0-0.2,0.1-0.3,0.2s-0.1,0.2-0.1,0.4c0,0.1,0.1,0.2,0.2,0.3
	c0.1,0.1,0.2,0.1,0.4,0.1c0.2,0,0.3,0.1,0.3,0.2c0,0.2-0.1,0.3-0.2,0.3C96.5,24.9,96.4,24.9,96.3,24.9z"/>
<path d="M95.5,21.6c-0.1,0-0.3-0.1-0.3-0.2c0-0.3-0.3-0.4-0.6-0.4c-0.2,0-0.3-0.1-0.3-0.2c0-0.2,0.1-0.3,0.2-0.3
	c0.6-0.1,1.1,0.3,1.2,0.9C95.8,21.4,95.7,21.6,95.5,21.6C95.5,21.6,95.5,21.6,95.5,21.6z"/>
<circle cx="93.7" cy="24.7" r="0.1"/>
<circle cx="95.5" cy="27.4" r="0.1"/>
<path d="M92.7,23.5c-0.1,0-0.2,0-0.2,0c-0.2,0-0.3-0.2-0.2-0.3c0-0.2,0.2-0.3,0.3-0.2c0.3,0.1,0.5-0.1,0.6-0.4
	c0-0.2,0.2-0.3,0.3-0.2c0.2,0,0.3,0.2,0.2,0.3C93.6,23.2,93.1,23.5,92.7,23.5z"/>
<path d="M95.7,30.8c-0.1,0-0.3,0-0.4-0.1c-0.2-0.1-0.3-0.3-0.3-0.5c0-0.2,0-0.4,0.1-0.6c0.1-0.2,0.3-0.3,0.5-0.3
	c0.2,0,0.4,0,0.6,0.1c0.1,0.1,0.2,0.3,0.1,0.4c-0.1,0.1-0.3,0.2-0.4,0.1c0,0-0.1,0-0.1,0c0,0-0.1,0-0.1,0.1s0,0.1,0,0.1
	c0,0,0,0.1,0.1,0.1c0.1,0,0.2,0,0.2-0.1c0.1-0.1,0.3-0.2,0.4-0.1c0.1,0.1,0.2,0.3,0.1,0.4C96.2,30.6,95.9,30.8,95.7,30.8z"/>
<circle cx="92.8" cy="19.7" r="0.3"/>
<circle cx="91.4" cy="20.4" r="0.1"/>
<circle cx="96" cy="32.4" r="0.1"/>
<circle cx="91.1" cy="24.6" r="0.1"/>
<circle cx="92.3" cy="29.7" r="0.1"/>
<path d="M94.1,17.8c-0.2,0-0.3,0-0.5-0.1c-0.5-0.3-0.6-0.8-0.4-1.3c0.1-0.1,0.3-0.2,0.4-0.1c0.1,0.1,0.2,0.3,0.1,0.4
	c-0.1,0.2,0,0.4,0.2,0.5c0.1,0,0.2,0.1,0.3,0c0.1,0,0.2-0.1,0.2-0.2c0.1-0.1,0.3-0.2,0.4-0.1c0.1,0.1,0.2,0.3,0.1,0.4
	c-0.1,0.2-0.3,0.4-0.6,0.5C94.3,17.8,94.2,17.8,94.1,17.8z"/>
<circle cx="97.3" cy="26.7" r="0.1"/>
<path d="M98.1,32.8c-0.1,0-0.2,0-0.3-0.1c-0.3-0.1-0.5-0.3-0.6-0.5c-0.1-0.3-0.2-0.5-0.1-0.8s0.3-0.5,0.5-0.6
	c0.3-0.1,0.5-0.1,0.8-0.1c0.3,0.1,0.5,0.3,0.6,0.5c0.1,0.1,0,0.3-0.1,0.4c-0.1,0.1-0.3,0-0.4-0.1c-0.1-0.1-0.2-0.2-0.3-0.2
	c-0.1,0-0.3,0-0.4,0c-0.1,0.1-0.2,0.2-0.2,0.3c0,0.1,0,0.3,0,0.4c0.1,0.1,0.2,0.2,0.3,0.2c0.1,0,0.3,0,0.4,0c0.1-0.1,0.3,0,0.4,0.1
	c0.1,0.1,0,0.3-0.1,0.4C98.4,32.7,98.3,32.8,98.1,32.8z"/>
<circle cx="92.4" cy="23.2" r="0.1"/>
<circle cx="96.5" cy="19.7" r="0.1"/>
<path d="M98,22.9C98,22.9,98,22.9,98,22.9c-0.6,0-1.1-0.5-1-1.1c0-0.2,0.2-0.3,0.3-0.3c0.2,0,0.3,0.1,0.3,0.3c0,0.3,0.2,0.5,0.5,0.5
	c0.2,0,0.3,0.1,0.3,0.3C98.3,22.8,98.2,22.9,98,22.9z"/>
</svg>
